<?xml version="1.0" encoding="UTF-8" standalone="no"?>
<svg
   xmlns:dc="http://purl.org/dc/elements/1.1/"
   xmlns:cc="http://creativecommons.org/ns#"
   xmlns:rdf="http://www.w3.org/1999/02/22-rdf-syntax-ns#"
   xmlns:svg="http://www.w3.org/2000/svg"
   xmlns="http://www.w3.org/2000/svg"
   id="svg121"
   version="1.2"
   viewBox="0 0 217.12 38.37"
   height="38.37pt"
   width="217.12pt">
  <metadata
     id="metadata125">
    <rdf:RDF>
      <cc:Work
         rdf:about="">
        <dc:format>image/svg+xml</dc:format>
        <dc:type
           rdf:resource="http://purl.org/dc/dcmitype/StillImage" />
        <dc:title></dc:title>
      </cc:Work>
    </rdf:RDF>
  </metadata>
  <defs
     id="defs8">
    <clipPath
       id="clip1">
      <path
         id="path2"
         d="M 55 19 L 65 19 L 65 38.371094 L 55 38.371094 Z M 55 19 " />
    </clipPath>
    <clipPath
       id="clip2">
      <path
         id="path5"
         d="M 210 1 L 217.121094 1 L 217.121094 8 L 210 8 Z M 210 1 " />
    </clipPath>
  </defs>
  <g
     id="surface566">
    <g
       id="g12"
       clip-rule="nonzero"
       clip-path="url(#clip1)">
      <path
         id="path10"
         d="M 64.59375 28.355469 C 64.59375 32.433594 63.660156 35.484375 59.972656 38.371094 L 55.972656 34.984375 C 58.074219 33.015625 58.738281 31.496094 58.792969 29.085938 L 55.59375 29.085938 L 55.59375 19.996094 L 64.59375 19.996094 L 64.59375 28.355469 "
         style=" stroke:none;fill-rule:nonzero;fill:rgb(13.729858%,12.159729%,12.548828%);fill-opacity:1;" />
    </g>
    <path
       id="path14"
       d="M 64.582031 13.945312 L 55.652344 13.945312 L 55.652344 4.855469 L 64.582031 4.855469 L 64.582031 13.945312 "
       style=" stroke:none;fill-rule:nonzero;fill:rgb(13.729858%,12.159729%,12.548828%);fill-opacity:1;" />
    <path
       id="path16"
       d="M 0 29.089844 L 0 0.339844 L 21.621094 0.339844 L 21.621094 7.179688 L 8.671875 7.179688 L 8.671875 12.226562 L 20.644531 12.226562 L 20.644531 19.070312 L 8.671875 19.070312 L 8.671875 29.089844 L 0 29.089844 "
       style=" stroke:none;fill-rule:nonzero;fill:rgb(13.729858%,12.159729%,12.548828%);fill-opacity:1;" />
    <path
       id="path18"
       d="M 41.773438 29.085938 L 41.773438 17.847656 L 33.386719 17.847656 L 33.386719 29.085938 L 24.507812 29.085938 L 24.507812 0.339844 L 33.386719 0.339844 L 33.386719 10.4375 L 41.773438 10.4375 L 41.773438 0.339844 L 50.691406 0.339844 L 50.691406 29.085938 L 41.773438 29.085938 "
       style=" stroke:none;fill-rule:nonzero;fill:rgb(13.729858%,12.159729%,12.548828%);fill-opacity:1;" />
    <path
       id="path20"
       d="M 81.835938 13.371094 C 83.542969 13.371094 84.804688 13.125 85.5 12.554688 C 86.148438 12.023438 86.394531 11.210938 86.394531 10.273438 C 86.394531 9.378906 86.148438 8.566406 85.5 7.996094 C 84.847656 7.382812 83.789062 7.179688 81.957031 7.179688 L 78.414062 7.179688 L 78.414062 13.371094 Z M 69.660156 29.085938 L 69.660156 0.339844 L 81.957031 0.339844 C 87.617188 0.339844 90.058594 0.949219 91.769531 2.089844 C 94.292969 3.757812 95.515625 6.488281 95.515625 10.070312 C 95.515625 13.371094 94.210938 16.261719 91.890625 17.96875 C 89.894531 19.394531 87.289062 20.089844 82.8125 20.089844 L 78.453125 20.089844 L 78.453125 29.085938 L 69.660156 29.085938 "
       style=" stroke:none;fill-rule:nonzero;fill:rgb(13.729858%,12.159729%,12.548828%);fill-opacity:1;" />
    <path
       id="path22"
       d="M 110.929688 1.363281 L 110.929688 3.222656 L 112.820312 3.222656 L 112.820312 4.234375 L 110.929688 4.234375 L 110.929688 7.082031 L 109.578125 7.082031 L 109.578125 0.335938 L 113.027344 0.335938 L 113.027344 1.363281 L 110.929688 1.363281 "
       style=" stroke:none;fill-rule:nonzero;fill:rgb(13.729858%,12.159729%,12.548828%);fill-opacity:1;" />
    <path
       id="path24"
       d="M 116.492188 4.824219 L 116.109375 4.824219 C 115.140625 4.824219 114.859375 5.144531 114.859375 5.613281 C 114.859375 6.023438 115.089844 6.273438 115.53125 6.273438 C 115.839844 6.273438 116.179688 6.113281 116.492188 5.84375 Z M 116.769531 7.082031 L 116.679688 6.570312 C 116.25 6.941406 115.789062 7.191406 115.152344 7.191406 C 114.140625 7.191406 113.601562 6.691406 113.601562 5.761719 C 113.601562 4.722656 114.429688 4.035156 116.179688 4.035156 L 116.492188 4.035156 L 116.492188 3.652344 C 116.492188 3.144531 116.199219 2.894531 115.5625 2.894531 C 115.039062 2.894531 114.492188 3.035156 114.039062 3.195312 L 113.871094 2.414062 C 114.460938 2.15625 115.132812 1.964844 115.878906 1.964844 C 117.160156 1.964844 117.757812 2.574219 117.757812 3.523438 L 117.757812 7.082031 L 116.769531 7.082031 "
       style=" stroke:none;fill-rule:nonzero;fill:rgb(13.729858%,12.159729%,12.548828%);fill-opacity:1;" />
    <path
       id="path26"
       d="M 120.929688 7.183594 C 119.609375 7.183594 118.929688 6.34375 118.929688 4.644531 C 118.929688 3.0625 119.742188 1.964844 121.019531 1.964844 C 121.660156 1.964844 122.167969 2.195312 122.519531 2.59375 L 122.070312 3.253906 C 121.839844 3.042969 121.558594 2.925781 121.21875 2.925781 C 120.640625 2.925781 120.269531 3.464844 120.269531 4.511719 C 120.269531 5.734375 120.601562 6.210938 121.179688 6.210938 C 121.578125 6.210938 121.910156 6.082031 122.238281 5.792969 L 122.628906 6.453125 C 122.238281 6.851562 121.6875 7.183594 120.929688 7.183594 "
       style=" stroke:none;fill-rule:nonzero;fill:rgb(13.729858%,12.159729%,12.548828%);fill-opacity:1;" />
    <path
       id="path28"
       d="M 127.636719 7.082031 L 126.359375 7.082031 C 126.359375 6.0625 126.386719 5.023438 126.386719 4.464844 C 126.386719 3.265625 126.148438 2.992188 125.6875 2.992188 C 125.4375 2.992188 125.109375 3.144531 124.769531 3.402344 L 124.769531 7.082031 L 123.480469 7.082031 L 123.480469 -0.00390625 L 124.769531 -0.00390625 L 124.769531 2.503906 C 125.117188 2.203125 125.589844 1.964844 126.140625 1.964844 C 127.136719 1.964844 127.679688 2.585938 127.679688 4.234375 C 127.679688 4.832031 127.636719 5.972656 127.636719 7.082031 "
       style=" stroke:none;fill-rule:nonzero;fill:rgb(13.729858%,12.159729%,12.548828%);fill-opacity:1;" />
    <path
       id="path30"
       d="M 133.246094 7.082031 L 131.96875 7.082031 C 131.96875 6.0625 131.996094 5.023438 131.996094 4.464844 C 131.996094 3.265625 131.757812 2.992188 131.296875 2.992188 C 131.046875 2.992188 130.71875 3.144531 130.378906 3.402344 L 130.378906 7.082031 L 129.089844 7.082031 L 129.089844 -0.00390625 L 130.378906 -0.00390625 L 130.378906 2.503906 C 130.730469 2.203125 131.199219 1.964844 131.746094 1.964844 C 132.746094 1.964844 133.285156 2.585938 133.285156 4.234375 C 133.285156 4.832031 133.246094 5.972656 133.246094 7.082031 "
       style=" stroke:none;fill-rule:nonzero;fill:rgb(13.729858%,12.159729%,12.548828%);fill-opacity:1;" />
    <path
       id="path32"
       d="M 136.738281 2.914062 C 136.148438 2.914062 135.738281 3.324219 135.738281 4.464844 C 135.738281 5.871094 136.109375 6.242188 136.746094 6.242188 C 137.328125 6.242188 137.738281 5.832031 137.738281 4.691406 C 137.738281 3.285156 137.367188 2.914062 136.738281 2.914062 Z M 136.640625 7.191406 C 135.21875 7.191406 134.421875 6.472656 134.421875 4.671875 C 134.421875 2.824219 135.347656 1.964844 136.839844 1.964844 C 138.257812 1.964844 139.058594 2.683594 139.058594 4.484375 C 139.058594 6.320312 138.128906 7.191406 136.640625 7.191406 "
       style=" stroke:none;fill-rule:nonzero;fill:rgb(13.729858%,12.159729%,12.548828%);fill-opacity:1;" />
    <path
       id="path34"
       d="M 141.949219 7.183594 C 140.628906 7.183594 139.949219 6.34375 139.949219 4.644531 C 139.949219 3.0625 140.761719 1.964844 142.039062 1.964844 C 142.679688 1.964844 143.1875 2.195312 143.539062 2.59375 L 143.089844 3.253906 C 142.859375 3.042969 142.578125 2.925781 142.238281 2.925781 C 141.660156 2.925781 141.289062 3.464844 141.289062 4.511719 C 141.289062 5.734375 141.617188 6.210938 142.199219 6.210938 C 142.597656 6.210938 142.929688 6.082031 143.257812 5.792969 L 143.648438 6.453125 C 143.257812 6.851562 142.707031 7.183594 141.949219 7.183594 "
       style=" stroke:none;fill-rule:nonzero;fill:rgb(13.729858%,12.159729%,12.548828%);fill-opacity:1;" />
    <path
       id="path36"
       d="M 148.65625 7.082031 L 147.378906 7.082031 C 147.378906 6.0625 147.40625 5.023438 147.40625 4.464844 C 147.40625 3.265625 147.167969 2.992188 146.707031 2.992188 C 146.457031 2.992188 146.128906 3.144531 145.789062 3.402344 L 145.789062 7.082031 L 144.5 7.082031 L 144.5 -0.00390625 L 145.789062 -0.00390625 L 145.789062 2.503906 C 146.140625 2.203125 146.609375 1.964844 147.15625 1.964844 C 148.15625 1.964844 148.699219 2.585938 148.699219 4.234375 C 148.699219 4.832031 148.65625 5.972656 148.65625 7.082031 "
       style=" stroke:none;fill-rule:nonzero;fill:rgb(13.729858%,12.159729%,12.548828%);fill-opacity:1;" />
    <path
       id="path38"
       d="M 151.300781 7.183594 C 150.738281 7.183594 150.230469 7.042969 149.742188 6.773438 L 149.851562 6.101562 C 150.421875 6.230469 150.757812 6.273438 151.070312 6.273438 C 151.730469 6.273438 151.980469 6.023438 151.980469 5.722656 C 151.980469 5.394531 151.820312 5.222656 151.089844 4.964844 C 150.128906 4.625 149.761719 4.214844 149.761719 3.484375 C 149.761719 2.574219 150.488281 1.964844 151.589844 1.964844 C 152.039062 1.964844 152.46875 2.066406 152.988281 2.335938 L 152.847656 2.992188 C 152.429688 2.894531 152.140625 2.84375 151.859375 2.84375 C 151.339844 2.84375 151.109375 3.082031 151.109375 3.363281 C 151.109375 3.664062 151.28125 3.8125 151.988281 4.074219 C 152.96875 4.402344 153.339844 4.871094 153.339844 5.59375 C 153.339844 6.503906 152.589844 7.183594 151.300781 7.183594 "
       style=" stroke:none;fill-rule:nonzero;fill:rgb(13.729858%,12.159729%,12.548828%);fill-opacity:1;" />
    <path
       id="path40"
       d="M 156.140625 7.183594 C 154.820312 7.183594 154.140625 6.34375 154.140625 4.644531 C 154.140625 3.0625 154.949219 1.964844 156.230469 1.964844 C 156.867188 1.964844 157.378906 2.195312 157.726562 2.59375 L 157.277344 3.253906 C 157.046875 3.042969 156.769531 2.925781 156.429688 2.925781 C 155.847656 2.925781 155.480469 3.464844 155.480469 4.511719 C 155.480469 5.734375 155.808594 6.210938 156.386719 6.210938 C 156.789062 6.210938 157.117188 6.082031 157.449219 5.792969 L 157.835938 6.453125 C 157.449219 6.851562 156.898438 7.183594 156.140625 7.183594 "
       style=" stroke:none;fill-rule:nonzero;fill:rgb(13.729858%,12.159729%,12.548828%);fill-opacity:1;" />
    <path
       id="path42"
       d="M 162.847656 7.082031 L 161.566406 7.082031 C 161.566406 6.0625 161.597656 5.023438 161.597656 4.464844 C 161.597656 3.265625 161.359375 2.992188 160.898438 2.992188 C 160.648438 2.992188 160.316406 3.144531 159.976562 3.402344 L 159.976562 7.082031 L 158.6875 7.082031 L 158.6875 -0.00390625 L 159.976562 -0.00390625 L 159.976562 2.503906 C 160.328125 2.203125 160.796875 1.964844 161.347656 1.964844 C 162.347656 1.964844 162.886719 2.585938 162.886719 4.234375 C 162.886719 4.832031 162.847656 5.972656 162.847656 7.082031 "
       style=" stroke:none;fill-rule:nonzero;fill:rgb(13.729858%,12.159729%,12.548828%);fill-opacity:1;" />
    <path
       id="path44"
       d="M 167.40625 7.082031 L 167.308594 6.550781 C 166.878906 6.941406 166.367188 7.191406 165.796875 7.191406 C 164.777344 7.191406 164.257812 6.550781 164.257812 4.921875 C 164.257812 4.304688 164.300781 3.175781 164.300781 2.074219 L 165.589844 2.074219 C 165.589844 3.082031 165.550781 4.101562 165.550781 4.703125 C 165.550781 5.882812 165.789062 6.164062 166.238281 6.164062 C 166.519531 6.164062 166.847656 5.992188 167.167969 5.753906 L 167.167969 2.074219 L 168.457031 2.074219 L 168.457031 7.082031 L 167.40625 7.082031 "
       style=" stroke:none;fill-rule:nonzero;fill:rgb(13.729858%,12.159729%,12.548828%);fill-opacity:1;" />
    <path
       id="path46"
       d="M 170.898438 7.160156 C 170.246094 7.160156 169.90625 6.960938 169.90625 6.152344 L 169.90625 -0.00390625 L 171.199219 -0.00390625 L 171.199219 5.640625 C 171.199219 6.203125 171.269531 6.28125 171.527344 6.28125 C 171.609375 6.28125 171.707031 6.273438 171.777344 6.273438 L 171.828125 7.03125 C 171.589844 7.113281 171.289062 7.160156 170.898438 7.160156 "
       style=" stroke:none;fill-rule:nonzero;fill:rgb(13.729858%,12.159729%,12.548828%);fill-opacity:1;" />
    <path
       id="path48"
       d="M 175.457031 4.011719 C 175.457031 3.214844 175.1875 2.824219 174.648438 2.824219 C 174.089844 2.824219 173.789062 3.3125 173.75 4.035156 L 175.457031 4.035156 Z M 173.75 4.832031 L 173.75 4.902344 C 173.75 5.824219 174.148438 6.210938 174.867188 6.210938 C 175.316406 6.210938 175.90625 6.113281 176.488281 5.921875 L 176.675781 6.660156 C 176.066406 6.980469 175.347656 7.191406 174.609375 7.191406 C 173.300781 7.191406 172.429688 6.542969 172.429688 4.714844 C 172.429688 2.925781 173.300781 1.964844 174.699219 1.964844 C 175.988281 1.964844 176.835938 2.683594 176.699219 4.832031 L 173.75 4.832031 "
       style=" stroke:none;fill-rule:nonzero;fill:rgb(13.729858%,12.159729%,12.548828%);fill-opacity:1;" />
    <path
       id="path50"
       d="M 182.347656 1.304688 L 181.9375 1.304688 L 181.9375 3.8125 L 182.347656 3.8125 C 183.238281 3.8125 183.636719 3.355469 183.636719 2.554688 C 183.636719 1.746094 183.285156 1.304688 182.347656 1.304688 Z M 182.21875 4.8125 L 181.9375 4.8125 L 181.9375 7.082031 L 180.589844 7.082031 L 180.589844 0.335938 C 181.21875 0.335938 181.859375 0.316406 182.546875 0.316406 C 184.375 0.316406 185.046875 1.144531 185.046875 2.433594 C 185.046875 3.8125 184.308594 4.8125 182.21875 4.8125 "
       style=" stroke:none;fill-rule:nonzero;fill:rgb(13.729858%,12.159729%,12.548828%);fill-opacity:1;" />
    <path
       id="path52"
       d="M 188.027344 2.914062 C 187.4375 2.914062 187.027344 3.324219 187.027344 4.464844 C 187.027344 5.871094 187.398438 6.242188 188.035156 6.242188 C 188.617188 6.242188 189.027344 5.832031 189.027344 4.691406 C 189.027344 3.285156 188.65625 2.914062 188.027344 2.914062 Z M 187.929688 7.191406 C 186.507812 7.191406 185.710938 6.472656 185.710938 4.671875 C 185.710938 2.824219 186.636719 1.964844 188.128906 1.964844 C 189.546875 1.964844 190.347656 2.683594 190.347656 4.484375 C 190.347656 6.320312 189.417969 7.191406 187.929688 7.191406 "
       style=" stroke:none;fill-rule:nonzero;fill:rgb(13.729858%,12.159729%,12.548828%);fill-opacity:1;" />
    <path
       id="path54"
       d="M 192.828125 7.183594 C 191.90625 7.183594 191.558594 6.832031 191.558594 5.871094 L 191.558594 2.972656 L 190.929688 2.972656 L 190.929688 2.074219 L 191.609375 2.074219 C 191.730469 1.625 191.820312 1.175781 191.90625 0.617188 L 192.847656 0.617188 L 192.847656 2.074219 L 193.957031 2.074219 L 193.957031 2.972656 L 192.847656 2.972656 L 192.847656 5.550781 C 192.847656 6.0625 192.96875 6.222656 193.296875 6.222656 C 193.457031 6.222656 193.667969 6.203125 193.988281 6.113281 L 194.085938 6.851562 C 193.617188 7.089844 193.207031 7.183594 192.828125 7.183594 "
       style=" stroke:none;fill-rule:nonzero;fill:rgb(13.729858%,12.159729%,12.548828%);fill-opacity:1;" />
    <path
       id="path56"
       d="M 196.277344 7.183594 C 195.71875 7.183594 195.207031 7.042969 194.71875 6.773438 L 194.828125 6.101562 C 195.398438 6.230469 195.738281 6.273438 196.046875 6.273438 C 196.707031 6.273438 196.957031 6.023438 196.957031 5.722656 C 196.957031 5.394531 196.796875 5.222656 196.066406 4.964844 C 195.109375 4.625 194.738281 4.214844 194.738281 3.484375 C 194.738281 2.574219 195.46875 1.964844 196.566406 1.964844 C 197.015625 1.964844 197.449219 2.066406 197.96875 2.335938 L 197.824219 2.992188 C 197.40625 2.894531 197.117188 2.84375 196.835938 2.84375 C 196.316406 2.84375 196.089844 3.082031 196.089844 3.363281 C 196.089844 3.664062 196.257812 3.8125 196.96875 4.074219 C 197.945312 4.402344 198.316406 4.871094 198.316406 5.59375 C 198.316406 6.503906 197.566406 7.183594 196.277344 7.183594 "
       style=" stroke:none;fill-rule:nonzero;fill:rgb(13.729858%,12.159729%,12.548828%);fill-opacity:1;" />
    <path
       id="path58"
       d="M 202.148438 2.984375 C 201.964844 2.925781 201.757812 2.882812 201.535156 2.882812 C 200.886719 2.882812 200.4375 3.414062 200.4375 4.601562 C 200.4375 5.664062 200.746094 6.203125 201.257812 6.203125 C 201.496094 6.203125 201.816406 6.0625 202.148438 5.78125 Z M 202.386719 7.082031 L 202.285156 6.570312 C 201.867188 6.933594 201.40625 7.191406 200.878906 7.191406 C 199.707031 7.191406 199.117188 6.121094 199.117188 4.78125 C 199.117188 2.765625 200.207031 1.964844 201.585938 1.964844 C 201.785156 1.964844 202.015625 1.984375 202.148438 1.996094 L 202.148438 -0.00390625 L 203.4375 -0.00390625 L 203.4375 7.082031 L 202.386719 7.082031 "
       style=" stroke:none;fill-rule:nonzero;fill:rgb(13.729858%,12.159729%,12.548828%);fill-opacity:1;" />
    <path
       id="path60"
       d="M 207.457031 4.824219 L 207.078125 4.824219 C 206.109375 4.824219 205.828125 5.144531 205.828125 5.613281 C 205.828125 6.023438 206.058594 6.273438 206.496094 6.273438 C 206.808594 6.273438 207.148438 6.113281 207.457031 5.84375 Z M 207.738281 7.082031 L 207.648438 6.570312 C 207.21875 6.941406 206.757812 7.191406 206.117188 7.191406 C 205.109375 7.191406 204.570312 6.691406 204.570312 5.761719 C 204.570312 4.722656 205.398438 4.035156 207.148438 4.035156 L 207.457031 4.035156 L 207.457031 3.652344 C 207.457031 3.144531 207.167969 2.894531 206.527344 2.894531 C 206.007812 2.894531 205.457031 3.035156 205.007812 3.195312 L 204.839844 2.414062 C 205.429688 2.15625 206.097656 1.964844 206.847656 1.964844 C 208.125 1.964844 208.726562 2.574219 208.726562 3.523438 L 208.726562 7.082031 L 207.738281 7.082031 "
       style=" stroke:none;fill-rule:nonzero;fill:rgb(13.729858%,12.159729%,12.548828%);fill-opacity:1;" />
    <g
       id="g64"
       clip-rule="nonzero"
       clip-path="url(#clip2)">
      <path
         id="path62"
         d="M 217.085938 7.082031 L 215.804688 7.082031 C 215.804688 6.074219 215.835938 5.042969 215.835938 4.464844 C 215.835938 3.265625 215.617188 2.992188 215.1875 2.992188 C 214.925781 2.992188 214.566406 3.183594 214.234375 3.445312 C 214.265625 3.605469 214.285156 3.832031 214.285156 4.195312 L 214.285156 7.082031 L 213.007812 7.082031 L 213.007812 4.464844 C 213.007812 3.285156 212.785156 2.992188 212.367188 2.992188 C 212.128906 2.992188 211.796875 3.152344 211.46875 3.402344 L 211.46875 7.082031 L 210.179688 7.082031 L 210.179688 2.074219 L 211.238281 2.074219 L 211.328125 2.605469 C 211.726562 2.234375 212.238281 1.964844 212.808594 1.964844 C 213.425781 1.964844 213.835938 2.273438 214.027344 2.683594 C 214.507812 2.253906 215.027344 1.964844 215.625 1.964844 C 216.605469 1.964844 217.125 2.605469 217.125 4.222656 C 217.125 4.84375 217.085938 5.980469 217.085938 7.082031 "
         style=" stroke:none;fill-rule:nonzero;fill:rgb(13.729858%,12.159729%,12.548828%);fill-opacity:1;" />
    </g>
    <path
       id="path66"
       d="M 111.988281 18.191406 C 110.390625 18.191406 109.570312 17.523438 109.570312 15.792969 L 109.570312 11.335938 L 110.921875 11.335938 L 110.921875 15.652344 C 110.921875 16.800781 111.28125 17.203125 112.109375 17.203125 C 112.859375 17.203125 113.308594 16.851562 113.308594 15.734375 L 113.308594 11.335938 L 114.628906 11.335938 L 114.628906 15.644531 C 114.628906 17.492188 113.539062 18.191406 111.988281 18.191406 "
       style=" stroke:none;fill-rule:nonzero;fill:rgb(13.729858%,12.159729%,12.548828%);fill-opacity:1;" />
    <path
       id="path68"
       d="M 120.320312 18.082031 L 119.039062 18.082031 C 119.039062 17.074219 119.070312 16.042969 119.070312 15.453125 C 119.070312 14.265625 118.839844 13.992188 118.378906 13.992188 C 118.109375 13.992188 117.78125 14.152344 117.449219 14.402344 L 117.449219 18.082031 L 116.160156 18.082031 L 116.160156 13.074219 L 117.21875 13.074219 L 117.308594 13.605469 C 117.738281 13.214844 118.25 12.964844 118.828125 12.964844 C 119.839844 12.964844 120.359375 13.605469 120.359375 15.234375 C 120.359375 15.851562 120.320312 16.980469 120.320312 18.082031 "
       style=" stroke:none;fill-rule:nonzero;fill:rgb(13.729858%,12.159729%,12.548828%);fill-opacity:1;" />
    <path
       id="path70"
       d="M 121.769531 18.082031 L 121.769531 13.074219 L 123.058594 13.074219 L 123.058594 18.082031 Z M 122.417969 12.425781 C 121.800781 12.425781 121.648438 12.265625 121.648438 11.753906 C 121.648438 11.253906 121.808594 11.085938 122.417969 11.085938 C 123.039062 11.085938 123.179688 11.234375 123.179688 11.753906 C 123.179688 12.253906 123.03125 12.425781 122.417969 12.425781 "
       style=" stroke:none;fill-rule:nonzero;fill:rgb(13.729858%,12.159729%,12.548828%);fill-opacity:1;" />
    <path
       id="path72"
       d="M 127.078125 18.082031 L 125.398438 18.082031 L 123.972656 13.074219 L 125.359375 13.074219 L 126.167969 15.902344 L 126.367188 16.902344 C 126.789062 15.542969 127.078125 14.304688 127.199219 13.074219 L 128.527344 13.074219 C 128.269531 14.792969 127.777344 16.511719 127.078125 18.082031 "
       style=" stroke:none;fill-rule:nonzero;fill:rgb(13.729858%,12.159729%,12.548828%);fill-opacity:1;" />
    <path
       id="path74"
       d="M 132.199219 15.011719 C 132.199219 14.214844 131.929688 13.824219 131.390625 13.824219 C 130.828125 13.824219 130.53125 14.3125 130.488281 15.035156 L 132.199219 15.035156 Z M 130.488281 15.832031 L 130.488281 15.902344 C 130.488281 16.824219 130.890625 17.210938 131.609375 17.210938 C 132.058594 17.210938 132.648438 17.113281 133.226562 16.921875 L 133.417969 17.660156 C 132.808594 17.980469 132.089844 18.191406 131.347656 18.191406 C 130.039062 18.191406 129.171875 17.542969 129.171875 15.714844 C 129.171875 13.925781 130.039062 12.964844 131.4375 12.964844 C 132.726562 12.964844 133.578125 13.683594 133.4375 15.832031 L 130.488281 15.832031 "
       style=" stroke:none;fill-rule:nonzero;fill:rgb(13.729858%,12.159729%,12.548828%);fill-opacity:1;" />
    <path
       id="path76"
       d="M 137.390625 14.214844 C 137.179688 14.152344 137.050781 14.144531 136.949219 14.144531 C 136.667969 14.144531 136.429688 14.332031 135.980469 14.902344 L 135.980469 18.082031 L 134.691406 18.082031 L 134.691406 13.074219 L 135.75 13.074219 L 135.847656 13.855469 C 136.359375 13.183594 136.699219 12.972656 137.058594 12.972656 C 137.207031 12.972656 137.378906 13.003906 137.539062 13.085938 L 137.390625 14.214844 "
       style=" stroke:none;fill-rule:nonzero;fill:rgb(13.729858%,12.159729%,12.548828%);fill-opacity:1;" />
    <path
       id="path78"
       d="M 139.621094 18.183594 C 139.0625 18.183594 138.550781 18.042969 138.0625 17.773438 L 138.171875 17.101562 C 138.742188 17.230469 139.078125 17.273438 139.390625 17.273438 C 140.050781 17.273438 140.300781 17.023438 140.300781 16.722656 C 140.300781 16.394531 140.140625 16.222656 139.410156 15.964844 C 138.449219 15.625 138.082031 15.214844 138.082031 14.484375 C 138.082031 13.574219 138.8125 12.964844 139.910156 12.964844 C 140.359375 12.964844 140.789062 13.066406 141.308594 13.335938 L 141.167969 13.992188 C 140.75 13.894531 140.460938 13.84375 140.179688 13.84375 C 139.660156 13.84375 139.429688 14.082031 139.429688 14.363281 C 139.429688 14.664062 139.601562 14.8125 140.308594 15.074219 C 141.289062 15.402344 141.660156 15.871094 141.660156 16.59375 C 141.660156 17.503906 140.910156 18.183594 139.621094 18.183594 "
       style=" stroke:none;fill-rule:nonzero;fill:rgb(13.729858%,12.159729%,12.548828%);fill-opacity:1;" />
    <path
       id="path80"
       d="M 142.742188 18.082031 L 142.742188 13.074219 L 144.03125 13.074219 L 144.03125 18.082031 Z M 143.390625 12.425781 C 142.769531 12.425781 142.621094 12.265625 142.621094 11.753906 C 142.621094 11.253906 142.78125 11.085938 143.390625 11.085938 C 144.011719 11.085938 144.148438 11.234375 144.148438 11.753906 C 144.148438 12.253906 144 12.425781 143.390625 12.425781 "
       style=" stroke:none;fill-rule:nonzero;fill:rgb(13.729858%,12.159729%,12.548828%);fill-opacity:1;" />
    <path
       id="path82"
       d="M 146.851562 18.183594 C 145.929688 18.183594 145.582031 17.832031 145.582031 16.871094 L 145.582031 13.972656 L 144.949219 13.972656 L 144.949219 13.074219 L 145.632812 13.074219 C 145.75 12.625 145.839844 12.175781 145.929688 11.617188 L 146.871094 11.617188 L 146.871094 13.074219 L 147.980469 13.074219 L 147.980469 13.972656 L 146.871094 13.972656 L 146.871094 16.550781 C 146.871094 17.0625 146.992188 17.222656 147.320312 17.222656 C 147.480469 17.222656 147.691406 17.203125 148.011719 17.113281 L 148.109375 17.851562 C 147.640625 18.089844 147.230469 18.183594 146.851562 18.183594 "
       style=" stroke:none;fill-rule:nonzero;fill:rgb(13.729858%,12.159729%,12.548828%);fill-opacity:1;" />
    <path
       id="path84"
       d="M 149.269531 19.871094 C 149.050781 19.871094 148.769531 19.800781 148.511719 19.660156 L 148.511719 18.921875 C 148.660156 18.941406 148.890625 18.953125 149.007812 18.953125 C 149.328125 18.953125 149.550781 18.882812 149.730469 18.730469 C 149.9375 18.550781 150.019531 18.382812 150.019531 18.140625 C 150.019531 17.941406 149.960938 17.640625 149.789062 17.152344 L 148.550781 13.074219 L 149.929688 13.074219 L 150.707031 15.882812 C 150.859375 16.363281 150.949219 16.824219 150.929688 17.121094 C 151.308594 15.953125 151.65625 14.414062 151.757812 13.074219 L 153.085938 13.074219 C 152.285156 18.300781 150.648438 19.871094 149.269531 19.871094 "
       style=" stroke:none;fill-rule:nonzero;fill:rgb(13.729858%,12.159729%,12.548828%);fill-opacity:1;" />
    <path
       id="path86"
       d="M 158.238281 13.914062 C 157.648438 13.914062 157.238281 14.324219 157.238281 15.464844 C 157.238281 16.871094 157.609375 17.242188 158.246094 17.242188 C 158.828125 17.242188 159.238281 16.832031 159.238281 15.691406 C 159.238281 14.285156 158.867188 13.914062 158.238281 13.914062 Z M 158.140625 18.191406 C 156.71875 18.191406 155.921875 17.472656 155.921875 15.671875 C 155.921875 13.824219 156.847656 12.964844 158.339844 12.964844 C 159.757812 12.964844 160.558594 13.683594 160.558594 15.484375 C 160.558594 17.320312 159.628906 18.191406 158.140625 18.191406 "
       style=" stroke:none;fill-rule:nonzero;fill:rgb(13.729858%,12.159729%,12.548828%);fill-opacity:1;" />
    <path
       id="path88"
       d="M 164.246094 11.933594 C 164.039062 11.855469 163.839844 11.816406 163.65625 11.816406 C 163.269531 11.816406 163.117188 12.015625 163.117188 12.433594 L 163.117188 13.074219 L 164.019531 13.074219 L 164.019531 13.972656 L 163.117188 13.972656 L 163.117188 18.082031 L 161.839844 18.082031 L 161.839844 13.972656 L 161.199219 13.972656 L 161.199219 13.074219 L 161.839844 13.074219 L 161.839844 12.476562 C 161.839844 11.484375 162.230469 10.886719 163.238281 10.886719 C 163.738281 10.886719 164.140625 11.035156 164.4375 11.195312 L 164.246094 11.933594 "
       style=" stroke:none;fill-rule:nonzero;fill:rgb(13.729858%,12.159729%,12.548828%);fill-opacity:1;" />
    <path
       id="path90"
       d="M 111.589844 23.523438 C 111.308594 24.484375 110.96875 25.722656 110.71875 26.742188 L 112.519531 26.742188 C 112.238281 25.703125 111.917969 24.5625 111.589844 23.523438 Z M 113.027344 29.082031 C 112.949219 28.703125 112.839844 28.140625 112.738281 27.753906 L 110.511719 27.753906 C 110.421875 28.132812 110.308594 28.621094 110.230469 29.082031 L 108.941406 29.082031 C 109.441406 26.832031 110.101562 24.503906 110.808594 22.335938 L 112.578125 22.335938 C 113.359375 24.644531 113.949219 26.8125 114.488281 29.082031 L 113.027344 29.082031 "
       style=" stroke:none;fill-rule:nonzero;fill:rgb(13.729858%,12.159729%,12.548828%);fill-opacity:1;" />
    <path
       id="path92"
       d="M 117.558594 24.953125 C 117.320312 24.953125 116.992188 25.09375 116.671875 25.375 L 116.671875 28.171875 C 116.839844 28.242188 117.050781 28.273438 117.269531 28.273438 C 117.921875 28.273438 118.378906 27.742188 118.378906 26.554688 C 118.378906 25.523438 118.070312 24.953125 117.558594 24.953125 Z M 117.199219 29.191406 C 117.050781 29.191406 116.828125 29.183594 116.671875 29.160156 L 116.671875 30.8125 L 115.382812 30.8125 L 115.382812 24.074219 L 116.429688 24.074219 L 116.53125 24.585938 C 116.941406 24.214844 117.421875 23.964844 117.921875 23.964844 C 119.117188 23.964844 119.699219 25.042969 119.699219 26.375 C 119.699219 28.351562 118.640625 29.191406 117.199219 29.191406 "
       style=" stroke:none;fill-rule:nonzero;fill:rgb(13.729858%,12.159729%,12.548828%);fill-opacity:1;" />
    <path
       id="path94"
       d="M 123.050781 24.953125 C 122.808594 24.953125 122.480469 25.09375 122.160156 25.375 L 122.160156 28.171875 C 122.328125 28.242188 122.539062 28.273438 122.761719 28.273438 C 123.410156 28.273438 123.867188 27.742188 123.867188 26.554688 C 123.867188 25.523438 123.558594 24.953125 123.050781 24.953125 Z M 122.691406 29.191406 C 122.539062 29.191406 122.320312 29.183594 122.160156 29.160156 L 122.160156 30.8125 L 120.871094 30.8125 L 120.871094 24.074219 L 121.921875 24.074219 L 122.019531 24.585938 C 122.429688 24.214844 122.910156 23.964844 123.410156 23.964844 C 124.609375 23.964844 125.1875 25.042969 125.1875 26.375 C 125.1875 28.351562 124.128906 29.191406 122.691406 29.191406 "
       style=" stroke:none;fill-rule:nonzero;fill:rgb(13.729858%,12.159729%,12.548828%);fill-opacity:1;" />
    <path
       id="path96"
       d="M 127.351562 29.160156 C 126.699219 29.160156 126.359375 28.960938 126.359375 28.152344 L 126.359375 21.996094 L 127.648438 21.996094 L 127.648438 27.640625 C 127.648438 28.203125 127.71875 28.28125 127.980469 28.28125 C 128.058594 28.28125 128.160156 28.273438 128.230469 28.273438 L 128.28125 29.03125 C 128.039062 29.113281 127.742188 29.160156 127.351562 29.160156 "
       style=" stroke:none;fill-rule:nonzero;fill:rgb(13.729858%,12.159729%,12.548828%);fill-opacity:1;" />
    <path
       id="path98"
       d="M 129.261719 29.082031 L 129.261719 24.074219 L 130.550781 24.074219 L 130.550781 29.082031 Z M 129.910156 23.425781 C 129.289062 23.425781 129.140625 23.265625 129.140625 22.753906 C 129.140625 22.253906 129.300781 22.085938 129.910156 22.085938 C 130.53125 22.085938 130.667969 22.234375 130.667969 22.753906 C 130.667969 23.253906 130.519531 23.425781 129.910156 23.425781 "
       style=" stroke:none;fill-rule:nonzero;fill:rgb(13.729858%,12.159729%,12.548828%);fill-opacity:1;" />
    <path
       id="path100"
       d="M 134.75 26.011719 C 134.75 25.214844 134.480469 24.824219 133.941406 24.824219 C 133.378906 24.824219 133.078125 25.3125 133.039062 26.035156 L 134.75 26.035156 Z M 133.039062 26.832031 L 133.039062 26.902344 C 133.039062 27.824219 133.441406 28.210938 134.160156 28.210938 C 134.609375 28.210938 135.199219 28.113281 135.777344 27.921875 L 135.96875 28.660156 C 135.359375 28.980469 134.640625 29.191406 133.898438 29.191406 C 132.589844 29.191406 131.722656 28.542969 131.722656 26.714844 C 131.722656 24.925781 132.589844 23.964844 133.988281 23.964844 C 135.277344 23.964844 136.128906 24.683594 135.988281 26.832031 L 133.039062 26.832031 "
       style=" stroke:none;fill-rule:nonzero;fill:rgb(13.729858%,12.159729%,12.548828%);fill-opacity:1;" />
    <path
       id="path102"
       d="M 139.988281 24.984375 C 139.808594 24.925781 139.601562 24.882812 139.378906 24.882812 C 138.730469 24.882812 138.28125 25.414062 138.28125 26.601562 C 138.28125 27.664062 138.589844 28.203125 139.101562 28.203125 C 139.339844 28.203125 139.660156 28.0625 139.988281 27.78125 Z M 140.230469 29.082031 L 140.128906 28.570312 C 139.710938 28.933594 139.25 29.191406 138.71875 29.191406 C 137.550781 29.191406 136.960938 28.121094 136.960938 26.78125 C 136.960938 24.765625 138.050781 23.964844 139.429688 23.964844 C 139.628906 23.964844 139.859375 23.984375 139.988281 23.996094 L 139.988281 21.996094 L 141.277344 21.996094 L 141.277344 29.082031 L 140.230469 29.082031 "
       style=" stroke:none;fill-rule:nonzero;fill:rgb(13.729858%,12.159729%,12.548828%);fill-opacity:1;" />
    <path
       id="path104"
       d="M 147.011719 29.183594 C 146.21875 29.183594 145.550781 28.921875 144.980469 28.542969 L 145.300781 27.832031 C 145.839844 28.050781 146.378906 28.191406 146.761719 28.191406 C 147.449219 28.191406 147.878906 27.890625 147.878906 27.324219 C 147.878906 26.003906 145.0625 26.261719 145.0625 24.144531 C 145.0625 22.984375 145.960938 22.234375 147.21875 22.234375 C 147.851562 22.234375 148.460938 22.40625 149.027344 22.785156 L 148.710938 23.484375 C 148.28125 23.316406 147.839844 23.214844 147.46875 23.214844 C 146.800781 23.214844 146.492188 23.535156 146.492188 23.984375 C 146.492188 25.304688 149.378906 25.082031 149.378906 27.164062 C 149.378906 28.300781 148.539062 29.183594 147.011719 29.183594 "
       style=" stroke:none;fill-rule:nonzero;fill:rgb(13.729858%,12.159729%,12.548828%);fill-opacity:1;" />
    <path
       id="path106"
       d="M 152.210938 29.183594 C 150.890625 29.183594 150.210938 28.34375 150.210938 26.644531 C 150.210938 25.0625 151.019531 23.964844 152.300781 23.964844 C 152.9375 23.964844 153.449219 24.195312 153.796875 24.59375 L 153.347656 25.253906 C 153.117188 25.042969 152.839844 24.925781 152.496094 24.925781 C 151.917969 24.925781 151.550781 25.464844 151.550781 26.511719 C 151.550781 27.734375 151.878906 28.210938 152.457031 28.210938 C 152.859375 28.210938 153.1875 28.082031 153.519531 27.792969 L 153.90625 28.453125 C 153.519531 28.851562 152.96875 29.183594 152.210938 29.183594 "
       style=" stroke:none;fill-rule:nonzero;fill:rgb(13.729858%,12.159729%,12.548828%);fill-opacity:1;" />
    <path
       id="path108"
       d="M 154.867188 29.082031 L 154.867188 24.074219 L 156.15625 24.074219 L 156.15625 29.082031 Z M 155.519531 23.425781 C 154.898438 23.425781 154.75 23.265625 154.75 22.753906 C 154.75 22.253906 154.910156 22.085938 155.519531 22.085938 C 156.140625 22.085938 156.277344 22.234375 156.277344 22.753906 C 156.277344 23.253906 156.128906 23.425781 155.519531 23.425781 "
       style=" stroke:none;fill-rule:nonzero;fill:rgb(13.729858%,12.159729%,12.548828%);fill-opacity:1;" />
    <path
       id="path110"
       d="M 160.359375 26.011719 C 160.359375 25.214844 160.089844 24.824219 159.550781 24.824219 C 158.988281 24.824219 158.691406 25.3125 158.648438 26.035156 L 160.359375 26.035156 Z M 158.648438 26.832031 L 158.648438 26.902344 C 158.648438 27.824219 159.050781 28.210938 159.769531 28.210938 C 160.21875 28.210938 160.808594 28.113281 161.386719 27.921875 L 161.578125 28.660156 C 160.96875 28.980469 160.246094 29.191406 159.507812 29.191406 C 158.199219 29.191406 157.328125 28.542969 157.328125 26.714844 C 157.328125 24.925781 158.199219 23.964844 159.597656 23.964844 C 160.886719 23.964844 161.738281 24.683594 161.597656 26.832031 L 158.648438 26.832031 "
       style=" stroke:none;fill-rule:nonzero;fill:rgb(13.729858%,12.159729%,12.548828%);fill-opacity:1;" />
    <path
       id="path112"
       d="M 167.007812 29.082031 L 165.726562 29.082031 C 165.726562 28.074219 165.757812 27.042969 165.757812 26.453125 C 165.757812 25.265625 165.527344 24.992188 165.066406 24.992188 C 164.796875 24.992188 164.46875 25.152344 164.136719 25.402344 L 164.136719 29.082031 L 162.847656 29.082031 L 162.847656 24.074219 L 163.90625 24.074219 L 163.996094 24.605469 C 164.429688 24.214844 164.9375 23.964844 165.519531 23.964844 C 166.527344 23.964844 167.046875 24.605469 167.046875 26.234375 C 167.046875 26.851562 167.007812 27.980469 167.007812 29.082031 "
       style=" stroke:none;fill-rule:nonzero;fill:rgb(13.729858%,12.159729%,12.548828%);fill-opacity:1;" />
    <path
       id="path114"
       d="M 170.179688 29.183594 C 168.859375 29.183594 168.179688 28.34375 168.179688 26.644531 C 168.179688 25.0625 168.988281 23.964844 170.269531 23.964844 C 170.90625 23.964844 171.417969 24.195312 171.769531 24.59375 L 171.316406 25.253906 C 171.089844 25.042969 170.808594 24.925781 170.46875 24.925781 C 169.890625 24.925781 169.519531 25.464844 169.519531 26.511719 C 169.519531 27.734375 169.847656 28.210938 170.429688 28.210938 C 170.828125 28.210938 171.15625 28.082031 171.488281 27.792969 L 171.878906 28.453125 C 171.488281 28.851562 170.9375 29.183594 170.179688 29.183594 "
       style=" stroke:none;fill-rule:nonzero;fill:rgb(13.729858%,12.159729%,12.548828%);fill-opacity:1;" />
    <path
       id="path116"
       d="M 175.429688 26.011719 C 175.429688 25.214844 175.15625 24.824219 174.617188 24.824219 C 174.058594 24.824219 173.757812 25.3125 173.71875 26.035156 L 175.429688 26.035156 Z M 173.71875 26.832031 L 173.71875 26.902344 C 173.71875 27.824219 174.117188 28.210938 174.839844 28.210938 C 175.285156 28.210938 175.878906 28.113281 176.457031 27.921875 L 176.648438 28.660156 C 176.035156 28.980469 175.316406 29.191406 174.578125 29.191406 C 173.269531 29.191406 172.398438 28.542969 172.398438 26.714844 C 172.398438 24.925781 173.269531 23.964844 174.667969 23.964844 C 175.957031 23.964844 176.808594 24.683594 176.667969 26.832031 L 173.71875 26.832031 "
       style=" stroke:none;fill-rule:nonzero;fill:rgb(13.729858%,12.159729%,12.548828%);fill-opacity:1;" />
    <path
       id="path118"
       d="M 179.109375 29.183594 C 178.550781 29.183594 178.039062 29.042969 177.550781 28.773438 L 177.660156 28.101562 C 178.230469 28.230469 178.570312 28.273438 178.878906 28.273438 C 179.539062 28.273438 179.789062 28.023438 179.789062 27.722656 C 179.789062 27.394531 179.628906 27.222656 178.898438 26.964844 C 177.941406 26.625 177.570312 26.214844 177.570312 25.484375 C 177.570312 24.574219 178.300781 23.964844 179.398438 23.964844 C 179.847656 23.964844 180.277344 24.066406 180.796875 24.335938 L 180.65625 24.992188 C 180.238281 24.894531 179.949219 24.84375 179.667969 24.84375 C 179.148438 24.84375 178.917969 25.082031 178.917969 25.363281 C 178.917969 25.664062 179.089844 25.8125 179.796875 26.074219 C 180.777344 26.402344 181.148438 26.871094 181.148438 27.59375 C 181.148438 28.503906 180.398438 29.183594 179.109375 29.183594 "
       style=" stroke:none;fill-rule:nonzero;fill:rgb(13.729858%,12.159729%,12.548828%);fill-opacity:1;" />
  </g>
</svg>
